<svg width="20" height="19" viewBox="0 0 20 19" fill="none" xmlns="http://www.w3.org/2000/svg">
<path d="M8.13592 1.84334C8.75851 0.0522214 11.2916 0.0522186 11.9142 1.84334L12.8597 4.5635C13.1344 5.35364 13.8717 5.88938 14.7081 5.90642L17.5873 5.9651C19.4831 6.00373 20.2659 8.41282 18.7548 9.55843L16.46 11.2983C15.7934 11.8036 15.5117 12.6705 15.754 13.4712L16.5879 16.2276C17.137 18.0426 15.0877 19.5315 13.5312 18.4484L11.1674 16.8035C10.4808 16.3257 9.56932 16.3257 8.88268 16.8035L6.51887 18.4484C4.96239 19.5315 2.91309 18.0426 3.4622 16.2276L4.29612 13.4712C4.53835 12.6705 4.2567 11.8036 3.5901 11.2983L1.29526 9.55843C-0.215802 8.41282 0.566957 6.00373 2.46281 5.9651L5.34201 5.90642C6.17835 5.88938 6.91574 5.35364 7.19039 4.5635L8.13592 1.84334Z" fill="#F2C94C"/>
</svg>
