<svg width="20" height="20" viewBox="0 0 20 20" fill="none" xmlns="http://www.w3.org/2000/svg">
<path fill-rule="evenodd" clip-rule="evenodd" d="M10.7575 2.87219L4.75746 4.37219C4.3123 4.48348 4 4.88346 4 5.34233V18H12V8V6V3.84233C12 3.19176 11.3886 2.7144 10.7575 2.87219ZM14 8V18H16V9C16 8.44772 15.5523 8 15 8H14ZM18 20H19C19.5523 20 20 19.5523 20 19C20 18.4477 19.5523 18 19 18H18V9C18 7.34315 16.6569 6 15 6H14V3.84233C14 1.89062 12.1658 0.458541 10.2724 0.931901L4.27239 2.4319C2.93689 2.76578 2 3.96573 2 5.34233V18H1C0.447715 18 0 18.4477 0 19C0 19.5523 0.447715 20 1 20H2H4H12H14H16H18Z" fill="#808191"/>
</svg>
